<?xml version="1.0" encoding="UTF-8" standalone="no" ?>
<!DOCTYPE svg PUBLIC "-//W3C//DTD SVG 1.1//EN" "http://www.w3.org/Graphics/SVG/1.1/DTD/svg11.dtd">
<svg xmlns="http://www.w3.org/2000/svg" xmlns:xlink="http://www.w3.org/1999/xlink" version="1.1" width="50" height="50" viewBox="0 0 50 50" xml:space="preserve">
<desc>Created with Fabric.js 5.3.0</desc>
<defs>
</defs>
<g transform="matrix(1 0 0 1 39.5862504891 19.795177305)" id="lSwn4cHx6iYejvs7y7_RK"  >
<path style="stroke: rgb(0,0,0); stroke-width: 4.2; stroke-dasharray: none; stroke-linecap: round; stroke-dashoffset: 0; stroke-linejoin: round; stroke-miterlimit: 10; fill: none; fill-rule: nonzero; opacity: 1;"  transform=" translate(0, 0)" d="M -8.38625 3.12518 L 8.38625 3.12518 L 2.0472400000000004 -3.1251700000000002" stroke-linecap="round" />
</g>
<g transform="matrix(1 0 0 1 18.7756127091 22.9471631206)" id="LuQSw0YsobXxOv_33QjXO"  >
<path style="stroke: rgb(0,0,0); stroke-width: 4.2; stroke-dasharray: none; stroke-linecap: round; stroke-dashoffset: 0; stroke-linejoin: round; stroke-miterlimit: 10; fill: none; fill-rule: nonzero; opacity: 1;"  transform=" translate(0, 0)" d="M 16.65292 8.29972 L 16.65292 20.80284 L -16.65292 20.80284 L -16.65292 -20.802830000000004 L 16.65292 -20.802830000000004 L 16.65292 -8.390770000000003" stroke-linecap="round" />
</g>
<g transform="matrix(1 0 0 1 12.5522084538 25.1024841489)" id="adGXrxLJsi6wIkExy__t-"  >
<path style="stroke: rgb(0,0,0); stroke-width: 4.2; stroke-dasharray: none; stroke-linecap: round; stroke-dashoffset: 0; stroke-linejoin: round; stroke-miterlimit: 10; fill: rgb(0,0,0); fill-rule: nonzero; opacity: 1;"  transform=" translate(0, 0)" d="M -10.35859 18.67518 L -10.35859 -22.84184 L 10.35859 -16.81276 L 10.35859 22.841849999999997 z" stroke-linecap="round" />
</g>
<g transform="matrix(1 0 0 1 44.7451960136 26.0883718689)" id="R72XifmVKWUWxzoXtmcoJ"  >
<path style="stroke: rgb(0,0,0); stroke-width: 4.2; stroke-dasharray: none; stroke-linecap: round; stroke-dashoffset: 0; stroke-linejoin: round; stroke-miterlimit: 10; fill: none; fill-rule: nonzero; opacity: 1;"  transform=" translate(0, 0)" d="M -3.0671 3.05851 L 3.0671 -3.05851" stroke-linecap="round" />
</g>
</svg>