<?xml version="1.0" encoding="UTF-8" standalone="no" ?>
<!DOCTYPE svg PUBLIC "-//W3C//DTD SVG 1.1//EN" "http://www.w3.org/Graphics/SVG/1.1/DTD/svg11.dtd">
<svg xmlns="http://www.w3.org/2000/svg" xmlns:xlink="http://www.w3.org/1999/xlink" version="1.1" width="50" height="50" viewBox="0 0 50 50" xml:space="preserve">
<desc>Created with Fabric.js 5.3.0</desc>
<defs>
</defs>
<g transform="matrix(1.0122507403 0 0 1.0158285434 25 25)" id="MHuT7yqwoyNok1BHJCWPw"  >
<path style="stroke: rgb(108,59,244); stroke-width: 0; stroke-dasharray: none; stroke-linecap: round; stroke-dashoffset: 0; stroke-linejoin: round; stroke-miterlimit: 10; fill: rgb(0,0,0); fill-rule: nonzero; opacity: 1;"  transform=" translate(0, 0)" d="M 11.31603 9.39589 C 11.31603 9.39589 0.6989999999999998 7.983459999999999 0.0571799999999989 12.22831 C -0.584640000000001 16.47315 7.115449999999999 16.35516 5.369919999999999 20.63934 C 3.6243999999999987 24.92352 -6.361030000000001 24.67526 -14.03409 19.29313 C -21.707150000000002 13.911000000000001 -24.66762 6.611450000000001 -24.69723 0.2047200000000018 C -24.726840000000003 -6.202009999999998 -21.68187 -18.06776 -9.032530000000001 -21.989659999999997 C 3.6167999999999996 -25.911559999999998 11.784979999999997 -22.140579999999996 17.24551 -17.032039999999995 C 22.70604 -11.923499999999995 26.09368 -2.2162699999999944 24.13924 4.116660000000007 C 22.184800000000003 10.449590000000008 11.316030000000001 9.395890000000007 11.316030000000001 9.395890000000007 z" stroke-linecap="round" />
</g>
<g transform="matrix(1.0069414801 0 0 1.0069414801 10.3185656498 27.9875736721)" id="2isL4Swo8jkXPu-Imzwq2"  >
<path style="stroke: rgb(108,59,244); stroke-width: 0; stroke-dasharray: none; stroke-linecap: butt; stroke-dashoffset: 0; stroke-linejoin: miter; stroke-miterlimit: 4; fill: rgb(255,255,255); fill-rule: nonzero; opacity: 1;"  transform=" translate(0, 0)" d="M 0 -3.93391 C 2.17152 -3.93391 3.93391 -2.17152 3.93391 0 C 3.93391 2.17152 2.17152 3.93391 0 3.93391 C -2.17152 3.93391 -3.93391 2.17152 -3.93391 0 C -3.93391 -2.17152 -2.17152 -3.93391 0 -3.93391 z" stroke-linecap="round" />
</g>
<g transform="matrix(1.0069414801 0 0 1.0069414801 14.9215003465 15.0819271643)" id="BD-OQDaYKkigBtKbZNSN6"  >
<path style="stroke: rgb(108,59,244); stroke-width: 0; stroke-dasharray: none; stroke-linecap: butt; stroke-dashoffset: 0; stroke-linejoin: miter; stroke-miterlimit: 4; fill: rgb(255,255,255); fill-rule: nonzero; opacity: 1;"  transform=" translate(0, 0)" d="M 0 -3.93391 C 2.17152 -3.93391 3.93391 -2.17152 3.93391 0 C 3.93391 2.17152 2.17152 3.93391 0 3.93391 C -2.17152 3.93391 -3.93391 2.17152 -3.93391 0 C -3.93391 -2.17152 -2.17152 -3.93391 0 -3.93391 z" stroke-linecap="round" />
</g>
<g transform="matrix(1.0069414801 0 0 1.0069414801 29.1105813137 11.6039782282)" id="-YXIGXdquKokht5VG_wM9"  >
<path style="stroke: rgb(108,59,244); stroke-width: 0; stroke-dasharray: none; stroke-linecap: butt; stroke-dashoffset: 0; stroke-linejoin: miter; stroke-miterlimit: 4; fill: rgb(255,255,255); fill-rule: nonzero; opacity: 1;"  transform=" translate(0, 0)" d="M 0 -3.93391 C 2.17152 -3.93391 3.93391 -2.17152 3.93391 0 C 3.93391 2.17152 2.17152 3.93391 0 3.93391 C -2.17152 3.93391 -3.93391 2.17152 -3.93391 0 C -3.93391 -2.17152 -2.17152 -3.93391 0 -3.93391 z" stroke-linecap="round" />
</g>
<g transform="matrix(1.0069414801 0 0 1.0069414801 39.1007717656 21.752617379)" id="gIaVIedrNozTdw8iX-tsk"  >
<path style="stroke: rgb(108,59,244); stroke-width: 0; stroke-dasharray: none; stroke-linecap: butt; stroke-dashoffset: 0; stroke-linejoin: miter; stroke-miterlimit: 4; fill: rgb(255,255,255); fill-rule: nonzero; opacity: 1;"  transform=" translate(0, 0)" d="M 0 -3.93391 C 2.17152 -3.93391 3.93391 -2.17152 3.93391 0 C 3.93391 2.17152 2.17152 3.93391 0 3.93391 C -2.17152 3.93391 -3.93391 2.17152 -3.93391 0 C -3.93391 -2.17152 -2.17152 -3.93391 0 -3.93391 z" stroke-linecap="round" />
</g>
</svg>