<?xml version="1.0" encoding="UTF-8" standalone="no" ?>
<!DOCTYPE svg PUBLIC "-//W3C//DTD SVG 1.1//EN" "http://www.w3.org/Graphics/SVG/1.1/DTD/svg11.dtd">
<svg xmlns="http://www.w3.org/2000/svg" xmlns:xlink="http://www.w3.org/1999/xlink" version="1.1" width="50" height="50" viewBox="0 0 50 50" xml:space="preserve">
<desc>Created with Fabric.js 5.3.0</desc>
<defs>
</defs>
<g transform="matrix(1.0033210319 0 0 1.0033210319 25.0579945312 25)" id="9WxG_arjgenImCVvniN9y"  >
<path style="stroke: rgb(0,0,0); stroke-width: 2.8; stroke-dasharray: none; stroke-linecap: round; stroke-dashoffset: 0; stroke-linejoin: round; stroke-miterlimit: 10; fill: rgb(0,0,0); fill-rule: nonzero; opacity: 1;"  transform=" translate(0, 0)" d="M 13.18396 -23.3571 C 14.24484 -23.44749 15.411850000000001 -22.743309999999997 15.411850000000001 -22.743309999999997 L 22.509980000000002 -15.796829999999996 C 22.509980000000002 -15.796829999999996 23.315260000000002 -14.669879999999996 23.4017 -13.420199999999996 C 23.48815 -12.170509999999997 22.85576 -11.351339999999997 22.85576 -11.351339999999997 L -7.711320000000001 18.939120000000003 L -23.4098 23.365120000000005 L -19.05395 7.875110000000005 C 0.817619999999998 -11.996459999999994 10.89172 -22.082089999999994 11.16835 -22.381769999999996 C 11.16835 -22.381769999999996 12.12309 -23.266719999999996 13.18397 -23.357099999999996 z" stroke-linecap="round" />
</g>
<g transform="matrix(1.2951326832 0 0 1.2951326832 39.3168041939 10.9293883101)" id="j1gcx7tnX-wKo8mjKWRQ3"  >
<path style="stroke: rgb(255,255,255); stroke-width: 2.3; stroke-dasharray: none; stroke-linecap: round; stroke-dashoffset: 0; stroke-linejoin: round; stroke-miterlimit: 10; fill: none; fill-rule: nonzero; opacity: 1;"  transform=" translate(0, 0)" d="M 5.28896 5.25738 L -5.288949999999999 -5.25738" stroke-linecap="round" />
</g>
<g transform="matrix(1.0033210319 0 0 1.0033210319 10.3596537033 39.5132702177)" id="WOoncO_QF0PVNZV0094ti"  >
<path style="stroke: rgb(0,0,0); stroke-width: 0.5; stroke-dasharray: none; stroke-linecap: round; stroke-dashoffset: 0; stroke-linejoin: round; stroke-miterlimit: 10; fill: rgb(255,255,255); fill-rule: nonzero; opacity: 1;"  transform=" translate(0, 0)" d="M -1.36062 -4.07255 L 3.79335 -3.6511599999999995 L 4.02025 1.5028100000000006 L 5.25202 2.8966500000000006 L -3.2730999999999995 5.360180000000001 L -5.252009999999999 3.3755600000000006 L -2.6858799999999996 -5.360200000000001 z" stroke-linecap="round" />
</g>
<g transform="matrix(1.2951326832 0 0 1.2951326832 34.2302811924 15.8061577857)" id="w6El0KpJsYz7fsWpJt0wu"  >
<path style="stroke: rgb(255,255,255); stroke-width: 2.3; stroke-dasharray: none; stroke-linecap: round; stroke-dashoffset: 0; stroke-linejoin: round; stroke-miterlimit: 10; fill: none; fill-rule: nonzero; opacity: 1;"  transform=" translate(0, 0)" d="M 5.28896 5.25738 L -5.288949999999999 -5.25738" stroke-linecap="round" />
</g>
</svg>