<?xml version="1.0" encoding="UTF-8" standalone="no" ?>
<!DOCTYPE svg PUBLIC "-//W3C//DTD SVG 1.1//EN" "http://www.w3.org/Graphics/SVG/1.1/DTD/svg11.dtd">
<svg xmlns="http://www.w3.org/2000/svg" xmlns:xlink="http://www.w3.org/1999/xlink" version="1.1" width="200" height="400" viewBox="0 0 200 400" xml:space="preserve">
<desc>Created with Fabric.js 5.3.0</desc>
<defs>
</defs>
<g transform="matrix(0.3754536205 0.2745743678 -0.1812272728 0.2333987007 71.1620846101 93.6574660778)" id="1_G4bNUl1-MhtqUVJQeHW"  >
<path style="stroke: rgb(241,196,0); stroke-width: 1; stroke-dasharray: none; stroke-linecap: butt; stroke-dashoffset: 0; stroke-linejoin: miter; stroke-miterlimit: 4; fill: rgb(241,196,0); fill-rule: nonzero; opacity: 1;"  transform=" translate(0, 0)" d="M 0 -25.57239 C 5.23754 -25.57239 10.09602 -23.68226 14.09383 -20.58128 C 20.50339 -15.60957 24.7006 -7.525409999999999 24.7006 0.8717900000000007 C 24.7006 14.50652 13.634730000000001 25.572390000000002 0 25.572390000000002 C -13.63473 25.572390000000002 -24.7006 14.506520000000002 -24.7006 0.8717900000000007 C -24.7006 -12.762939999999999 -13.634730000000001 -25.57238 0 -25.57238 z" stroke-linecap="round" />
</g>
<g transform="matrix(0.9336325519 0 0 0.6663145663 55.8790282727 23.5449318167)" id="4g7KZTABzcIHGEGKwqEI8"  >
<path style="stroke: rgb(241,196,0); stroke-width: 0; stroke-dasharray: none; stroke-linecap: butt; stroke-dashoffset: 0; stroke-linejoin: miter; stroke-miterlimit: 4; fill: rgb(241,196,0); fill-rule: nonzero; opacity: 1;"  transform=" translate(0, 0.000005)" d="M 0 -25.57239 C 13.63473 -25.57239 24.7006 -12.762949999999998 24.7006 0.8717800000000011 C 24.7006 14.50651 13.634730000000001 25.572380000000003 0 25.572380000000003 C -13.63473 25.572380000000003 -24.7006 14.506510000000002 -24.7006 0.8717800000000011 C -24.7006 -12.762949999999998 -13.634730000000001 -25.57239 0 -25.57239 z" stroke-linecap="round" />
</g>
<g transform="matrix(3.464837723 -1.580972454 2.2634598895 4.7497320594 65.2264879301 51.0052069707)" id="yTuaPQAYa-7WJkobVQVQY"  >
<path style="stroke: rgb(241,196,0); stroke-width: 0; stroke-dasharray: none; stroke-linecap: butt; stroke-dashoffset: 0; stroke-linejoin: miter; stroke-miterlimit: 4; fill: rgb(241,196,0); fill-rule: nonzero; opacity: 1;"  transform=" translate(0.000005, 0.000005)" d="M -6.13773 -6.13773 L 6.137719999999999 -6.13773 L 6.137719999999999 6.137719999999999 L -6.13773 6.137719999999999 z" stroke-linecap="round" />
</g>
<g transform="matrix(0.2416362387 -0.4446891764 0.3304024096 0.1719041757 78.9403149143 77.1406818748)" id="Mzv_sn3ra6TTxwhZJW43i"  >
<path style="stroke: rgb(241,196,0); stroke-width: 1; stroke-dasharray: none; stroke-linecap: butt; stroke-dashoffset: 0; stroke-linejoin: miter; stroke-miterlimit: 4; fill: rgb(241,196,0); fill-rule: nonzero; opacity: 1;"  transform=" translate(-40, -40)" d="M 0 0 L 80 80 L 0 80 L 0 0 z" stroke-linecap="round" />
</g>
<g transform="matrix(1 0 0 1 100 293.9834523204)" id="4B3b5beAnuMAs8LcMBqSj"  >
<g style=""   >
		<g transform="matrix(0.7268302775 0 0 0.7268302775 0 -56.582753912)" id="e-AvhUiYhaK26ZnZ8rdKX"  >
<g style=""   >
		<g transform="matrix(-3.4269431703 0 0 -3.4269431703 -51.1122660239 16.0092434987)" id="TD87jHFEUlPLMERtKUoP-"  >
<path style="stroke: rgb(0,0,0); stroke-width: 4; stroke-dasharray: none; stroke-linecap: round; stroke-dashoffset: 0; stroke-linejoin: round; stroke-miterlimit: 10; fill: none; fill-rule: nonzero; opacity: 1;"  transform=" translate(0.000001903, -0.000005)" d="M -0.89931 -11.79892 C 2.1478099999999998 -4.313410000000001 0.4008799999999999 11.79893 0.4008799999999999 11.79893" stroke-linecap="round" />
</g>
		<g transform="matrix(-3.4269431703 0 0 -3.4269431703 -48.00642642 -48.9286325956)" id="iooEyRWDLRQiAg7LvxyYO"  >
<path style="stroke: rgb(0,0,0); stroke-width: 4; stroke-dasharray: none; stroke-linecap: round; stroke-dashoffset: 0; stroke-linejoin: round; stroke-miterlimit: 10; fill: none; fill-rule: nonzero; opacity: 1;"  transform=" translate(-0.0000044444, -0.0000044779)" d="M 0.00092 -0.20657 C -0.0032000000000000006 0.21785999999999997 0.00092 0.20654999999999998 0.00092 0.20654999999999998" stroke-linecap="round" />
</g>
		<g transform="matrix(-3.4269431703 0 0 -3.4269431703 46.3128836768 16.0092359273)" id="K3kteDFrhitSqLL0SGSDA"  >
<path style="stroke: rgb(0,0,0); stroke-width: 4; stroke-dasharray: none; stroke-linecap: round; stroke-dashoffset: 0; stroke-linejoin: round; stroke-miterlimit: 10; fill: none; fill-rule: nonzero; opacity: 1;"  transform=" translate(0.000001903, -0.000005)" d="M -0.89931 -11.79892 C 2.1478099999999998 -4.313410000000001 0.4008799999999999 11.79893 0.4008799999999999 11.79893" stroke-linecap="round" />
</g>
		<g transform="matrix(-3.4269431703 0 0 -3.4269431703 95.8722520843 0)" id="469OMeq6uu-sHuo7X3DxA"  >
<path style="stroke: rgb(0,0,0); stroke-width: 4; stroke-dasharray: none; stroke-linecap: round; stroke-dashoffset: 0; stroke-linejoin: round; stroke-miterlimit: 10; fill: none; fill-rule: nonzero; opacity: 1;"  transform=" translate(0.0000025585, 0.000005737)" d="M 8.51572 16.4705 C 8.51572 16.4705 -7.16403 14.23254 -8.433449999999999 5.997920000000001 C -9.702869999999999 -2.2366899999999994 4.121070000000001 -18.80847 5.185390000000002 -16.19387 C 8.232510000000001 -8.70836 5.185390000000002 15.66657 5.185390000000002 15.66657" stroke-linecap="round" />
</g>
		<g transform="matrix(-3.4269431703 0 0 -3.4269431703 49.4187232806 -48.9286401671)" id="0ZgWqQ9UKjJpxnztEaz8L"  >
<path style="stroke: rgb(0,0,0); stroke-width: 4; stroke-dasharray: none; stroke-linecap: round; stroke-dashoffset: 0; stroke-linejoin: round; stroke-miterlimit: 10; fill: none; fill-rule: nonzero; opacity: 1;"  transform=" translate(-0.0000044444, -0.0000044779)" d="M 0.00092 -0.20657 C -0.0032000000000000006 0.21785999999999997 0.00092 0.20654999999999998 0.00092 0.20654999999999998" stroke-linecap="round" />
</g>
		<g transform="matrix(-3.4269431703 0 0 -3.4269431703 -3.1058396039 3.4313163994)" id="3E7nTwX4YgHqXa1usZFgA"  >
<path style="stroke: rgb(0,0,0); stroke-width: 4; stroke-dasharray: none; stroke-linecap: round; stroke-dashoffset: 0; stroke-linejoin: round; stroke-miterlimit: 10; fill: none; fill-rule: nonzero; opacity: 1;"  transform=" translate(-0.000005, -0.0000029761)" d="M -7.34881 15.46923 C -7.34881 15.46923 -2.2007000000000003 -20.404709999999998 0.7318300000000004 -14.893550000000001 C 3.6643600000000003 -9.382390000000001 7.348820000000001 12.78462 7.348820000000001 12.78462" stroke-linecap="round" />
</g>
		<g transform="matrix(-3.4269431703 0 0 -3.4269431703 -99.8711723481 3.4313194734)" id="SLT78Br9HjiN4ecNYke10"  >
<path style="stroke: rgb(0,0,0); stroke-width: 4; stroke-dasharray: none; stroke-linecap: round; stroke-dashoffset: 0; stroke-linejoin: round; stroke-miterlimit: 10; fill: none; fill-rule: nonzero; opacity: 1;"  transform=" translate(-0.000005, -0.0000029761)" d="M -7.34881 15.46923 C -7.34881 15.46923 -2.2007000000000003 -20.404709999999998 0.7318300000000004 -14.893550000000001 C 3.6643600000000003 -9.382390000000001 7.348820000000001 12.78462 7.348820000000001 12.78462" stroke-linecap="round" />
</g>
</g>
</g>
		<g transform="matrix(1 0 0 1 0.0000037483 52.5332810119)" id="TDmnH21A1DvaZh1NHR3jv"  >
<g style=""   >
		<g transform="matrix(-2.484738577 -0.1737498472 0.1737498472 -2.484738577 -46.1496539012 -4.1003090924)" id="42FXtLN3-GtIUG8re7X0i"  >
<path style="stroke: rgb(0,0,0); stroke-width: 4; stroke-dasharray: none; stroke-linecap: round; stroke-dashoffset: 0; stroke-linejoin: round; stroke-miterlimit: 10; fill: none; fill-rule: nonzero; opacity: 1;"  transform=" translate(0.0000038939, 0.0000035967)" d="M -6.26279 -11.9784 C -6.26279 -11.9784 -10.63073 9.78258 -4.31183 11.75102 C 2.00708 13.71946 7.7335400000000005 2.25957 7.7335400000000005 2.25957" stroke-linecap="round" />
</g>
		<g transform="matrix(-2.024674898 0.1415790608 -0.1737498472 -2.484738577 -44.8539313363 9.6289350229)" id="3erFvLSRURw_LG9Q4qKu3"  >
<path style="stroke: rgb(0,0,0); stroke-width: 4; stroke-dasharray: none; stroke-linecap: round; stroke-dashoffset: 0; stroke-linejoin: round; stroke-miterlimit: 10; fill: none; fill-rule: nonzero; opacity: 1;"  transform=" translate(0.0000034091, 0.0000041835)" d="M -6.27538 -2.56342 C -3.64357 -3.2025099999999997 5.909000000000001 -3.12417 6.2637 -0.9027399999999999 C 6.6184 1.31869 -1.1928900000000002 4.8607000000000005 -5.90691 1.5774800000000002" stroke-linecap="round" />
</g>
		<g transform="matrix(0.7268302775 0 0 0.7268302775 54.4683957686 -14.9529283917)" id="zDkng6fyMdEVcCRF30vIb"  >
<g style=""   >
		<g transform="matrix(-3.4013992556 0.4176393141 -0.4176393141 -3.4013992556 1.4303940584 0)" id="hCqm69SvcNkUabZFF_OoJ"  >
<path style="stroke: rgb(0,0,0); stroke-width: 4; stroke-dasharray: none; stroke-linecap: round; stroke-dashoffset: 0; stroke-linejoin: round; stroke-miterlimit: 10; fill: none; fill-rule: nonzero; opacity: 1;"  transform=" translate(0.0000012826, 0.0000077913)" d="M -3.00601 -6.70236 C -3.00601 -6.70236 -1.6086099999999999 -12.12799 1.8076100000000004 -8.95753 C 5.223840000000001 -5.78707 0.2504700000000004 9.951780000000001 0.2504700000000004 9.951780000000001" stroke-linecap="round" />
</g>
		<g transform="matrix(-3.3847518132 -0.5360920216 0.5360920216 -3.3847518132 -0.9770065146 -16.9538060941)" id="vPxHr6asaszVd23lfUuAp"  >
<path style="stroke: rgb(0,0,0); stroke-width: 4; stroke-dasharray: none; stroke-linecap: round; stroke-dashoffset: 0; stroke-linejoin: round; stroke-miterlimit: 10; fill: none; fill-rule: nonzero; opacity: 1;"  transform=" translate(0, -0.000005)" d="M 4.18204 -0.88698 L -4.18204 0.8869900000000001" stroke-linecap="round" />
</g>
</g>
</g>
		<g transform="matrix(-2.4892887237 0.0869278777 -0.0869278777 -2.4892887237 -4.3848184682 -3.0191830577)" id="D38ASktYyVFSI_uTPz9iJ"  >
<path style="stroke: rgb(0,0,0); stroke-width: 4; stroke-dasharray: none; stroke-linecap: round; stroke-dashoffset: 0; stroke-linejoin: round; stroke-miterlimit: 10; fill: none; fill-rule: nonzero; opacity: 1;"  transform=" translate(-0.0000014131, 0)" d="M 0.05197 -12.09386 C 2.11759 -4.94356 -0.79268 12.09386 -0.79268 12.09386" stroke-linecap="round" />
</g>
		<g transform="matrix(-2.3405920701 0.8519058441 -0.8519058441 -2.3405920701 37.5207302268 12.8763511416)" id="c-erDVDA4jt-ZlI0jUNlC"  >
<path style="stroke: rgb(0,0,0); stroke-width: 4; stroke-dasharray: none; stroke-linecap: round; stroke-dashoffset: 0; stroke-linejoin: round; stroke-miterlimit: 10; fill: none; fill-rule: nonzero; opacity: 1;"  transform=" translate(0, -0.000001391)" d="M -8.69218 -9.24005 C -5.439570000000001 -10.66518 -1.9463300000000006 -10.456620000000001 2.5375499999999995 -5.15276 C 7.02143 0.15110000000000046 8.69218 9.99305 8.69218 9.99305" stroke-linecap="round" />
</g>
		<g transform="matrix(-2.4168184705 -0.6025805225 0.6025805225 -2.4168184705 3.242385007 -19.9294574078)" id="9vxvrNMlucBe6NdWkDbjR"  >
<path style="stroke: rgb(0,0,0); stroke-width: 4; stroke-dasharray: none; stroke-linecap: round; stroke-dashoffset: 0; stroke-linejoin: round; stroke-miterlimit: 10; fill: none; fill-rule: nonzero; opacity: 1;"  transform=" translate(-0.0000049134, -9e-9)" d="M 8.05719 5.39064 C 8.05719 5.39064 -5.1299399999999995 11.40521 -7.651909999999999 5.02195 C -10.173879999999999 -1.3613099999999996 -0.10083999999999893 -7.957799999999999 -0.10083999999999893 -7.957799999999999" stroke-linecap="round" />
</g>
</g>
</g>
</g>
</g>
<g transform="matrix(-4.3102243489 0 0 -4.21763247 78.4101366443 75.9385583318)" id="arqnjFt5fT0rqANjw-tt8"  >
<path style="stroke: rgb(0,0,0); stroke-width: 1.5; stroke-dasharray: none; stroke-linecap: round; stroke-dashoffset: 0; stroke-linejoin: round; stroke-miterlimit: 10; fill: none; fill-rule: nonzero; opacity: 1;"  transform=" translate(1.385e-7, 0.0000055798)" d="M -10.7021 -12.75873 C -10.7021 -12.75873 -8.69155 -16.40558 -5.09836 -16.37425 C -1.5051599999999996 -16.34291 0.25503000000000053 -12.75873 0.25503000000000053 -12.75873 C 0.25503000000000053 -12.75873 6.73587 -0.22591000000000072 9.44275 6.097719999999999 C 10.79092 9.247209999999999 11.97183 12.942269999999999 7.86376 15.50452 C 3.7556900000000004 18.066769999999998 0.28953000000000007 14.35066 -0.535239999999999 12.31278 C -2.1783699999999993 8.25286 -4.928709999999999 1.6838800000000003 -4.928709999999999 1.6838800000000003" stroke-linecap="round" />
</g>
<g transform="matrix(4.3102243489 0 0 -4.21763247 111.7455376067 68.0170640791)" id="7dOjuWTr8m-YeSU7OGR-j"  >
<path style="stroke: rgb(0,0,0); stroke-width: 1.5; stroke-dasharray: none; stroke-linecap: round; stroke-dashoffset: 0; stroke-linejoin: round; stroke-miterlimit: 10; fill: none; fill-rule: nonzero; opacity: 1;"  transform=" translate(0, 0)" d="M 3.07102 -14.49626 C 3.07102 -14.49626 9.736429999999999 -0.4299999999999997 11.726700000000001 4.219529999999999 C 13.07487 7.369019999999999 14.255780000000001 11.064079999999999 10.147710000000002 13.62633 C 6.039640000000002 16.188579999999998 2.5734800000000018 12.47247 1.7487100000000027 10.43459 C 0.10558000000000267 6.37467 -2.9171599999999973 -1.7219800000000003 -5.978239999999998 -6.53613 C -9.039319999999998 -11.350290000000001 -12.986049999999999 -4.71577 -12.986049999999999 -4.71577" stroke-linecap="round" />
</g>
</svg>