<?xml version="1.0" encoding="UTF-8" standalone="no" ?>
<!DOCTYPE svg PUBLIC "-//W3C//DTD SVG 1.1//EN" "http://www.w3.org/Graphics/SVG/1.1/DTD/svg11.dtd">
<svg xmlns="http://www.w3.org/2000/svg" xmlns:xlink="http://www.w3.org/1999/xlink" version="1.1" width="50" height="50" viewBox="0 0 50 50" xml:space="preserve">
<desc>Created with Fabric.js 5.3.0</desc>
<defs>
</defs>
<g transform="matrix(1 0 0 1 15.3688055778 16.3361591265)" id="W01HgejNALJAkg8__Xmal"  >
<path style="stroke: rgb(241,196,0); stroke-width: 0.15; stroke-dasharray: none; stroke-linecap: round; stroke-dashoffset: 0; stroke-linejoin: round; stroke-miterlimit: 10; fill: rgb(241,196,0); fill-rule: nonzero; opacity: 1;"  transform=" translate(0, 0)" d="M 8.10894 15.88355 L -14.319289999999999 -8.456109999999999 C -14.319289999999999 -8.456109999999999 -16.20853 -11.815559999999998 -13.24941 -14.533199999999999 C -10.290289999999999 -17.25085 -7.190829999999999 -15.02611 -7.190829999999999 -15.02611 C 7.19075 0.6330400000000012 14.55884 8.625150000000001 14.913450000000001 8.950210000000002 z" stroke-linecap="round" />
</g>
<g transform="matrix(1 0 0 1 12.5154310865 37.5409336176)" id="aVujE-qNAVmeAqNXbGouX"  >
<path style="stroke: rgb(241,196,0); stroke-width: 0.15; stroke-dasharray: none; stroke-linecap: round; stroke-dashoffset: 0; stroke-linejoin: round; stroke-miterlimit: 10; fill: rgb(241,196,0); fill-rule: nonzero; opacity: 1;"  transform=" translate(0, 0)" d="M 2.20842 8.49944 L -11.62527 11.99184 L -8.11602 -1.92258 L 1.6303799999999988 -11.99185 C 7.939019999999998 -5.059139999999999 11.270649999999998 -1.4302599999999988 11.625259999999999 -1.1052 z" stroke-linecap="round" />
</g>
<g transform="matrix(1 0 0 1 7.4754439254 42.9465121552)" id="Uyu2jsN416yt_N47WhoXd"  >
<path style="stroke: rgb(241,196,0); stroke-width: 0.15; stroke-dasharray: none; stroke-linecap: round; stroke-dashoffset: 0; stroke-linejoin: round; stroke-miterlimit: 10; fill: rgb(255,255,255); fill-rule: nonzero; opacity: 1;"  transform=" translate(0, 0)" d="M -0.3161 2.53468 L -2.53394 0.29952999999999985 L -1.83601 -2.53467 L 2.5339400000000003 1.8358499999999998 z" stroke-linecap="round" />
</g>
<g transform="matrix(1 0 0 1 36.7303543294 13.3150643473)" id="01OQxoKMPRizUbgzA9hZH"  >
<path style="stroke: rgb(241,196,0); stroke-width: 0.15; stroke-dasharray: none; stroke-linecap: round; stroke-dashoffset: 0; stroke-linejoin: round; stroke-miterlimit: 10; fill: rgb(241,196,0); fill-rule: nonzero; opacity: 1;"  transform=" translate(0, 0)" d="M -2.41932 12.80941 L -12.377839999999999 1.863579999999999 L 1.31292 -12.17806 C 1.31292 -12.17806 1.956 -12.72995 2.72201 -12.80111 C 3.48802 -12.87227 4.37696 -12.4627 4.37696 -12.4627 L 11.87297 -4.9455599999999995 C 11.87297 -4.9455599999999995 12.41494 -4.15438 12.375820000000001 -3.4413899999999993 C 12.3367 -2.7283999999999993 11.87297 -1.9572399999999992 11.87297 -1.9572399999999992 z" stroke-linecap="round" />
</g>
<g transform="matrix(1 0 0 1 40.5838871231 8.9822506084)" id="TOf3lGN0eGM82cA2JGw46"  >
<path style="stroke: rgb(241,196,0); stroke-width: 0.15; stroke-dasharray: none; stroke-linecap: round; stroke-dashoffset: 0; stroke-linejoin: round; stroke-miterlimit: 10; fill: rgb(255,255,255); fill-rule: nonzero; opacity: 1;"  transform=" translate(0, -0.000005)" d="M 0.87333 6.13033 L -6.11497 -0.8924799999999999 L -0.7977499999999997 -6.13032 L 6.1149700000000005 0.8266399999999994 z" stroke-linecap="round" />
</g>
<g transform="matrix(1 0 0 1 37.178009313 38.3417481571)" id="9xIzeLeqkNUVRDnUPgP69"  >
<path style="stroke: rgb(241,196,0); stroke-width: 0.15; stroke-dasharray: none; stroke-linecap: round; stroke-dashoffset: 0; stroke-linejoin: round; stroke-miterlimit: 10; fill: rgb(241,196,0); fill-rule: nonzero; opacity: 1;"  transform=" translate(0, 0)" d="M 6.50749 -3.65469 C 9.314589999999999 -1.4362400000000002 9.52427 1.9910599999999996 9.52427 1.9910599999999996 C 9.52427 1.9910599999999996 9.62255 6.294229999999999 10.21419 8.58775 C 10.80582 10.88126 11.97336 11.16512 11.97336 11.16512 C 11.97336 11.16512 0.4919499999999992 11.27397 -0.28402999999999956 11.16512 C -1.0600099999999997 11.05627 -3.7359699999999996 10.28065 -5.733149999999999 7.57746 C -7.7303299999999995 4.87427 -6.998349999999999 1.1488500000000004 -6.998349999999999 1.1488500000000004 L -11.97336 -4.236079999999999 L -5.161779999999999 -11.21351 C -2.0371799999999993 -7.77708 -0.29756999999999945 -5.8963399999999995 0.057040000000000646 -5.57128 C 0.057040000000000646 -5.57128 3.7004000000000006 -5.87315 6.5075 -3.6547 z" stroke-linecap="round" />
</g>
<g transform="matrix(1 0 0 1 39.6792999619 43.6048220458)" id="A8tSD8jCya537rAPS_5K6"  >
<path style="stroke: rgb(241,196,0); stroke-width: 0.25; stroke-dasharray: none; stroke-linecap: round; stroke-dashoffset: 0; stroke-linejoin: round; stroke-miterlimit: 10; fill: rgb(255,255,255); fill-rule: nonzero; opacity: 1;"  transform=" translate(-0.000005, 0.0000055556)" d="M 2.00648 -3.60508 C 3.5015899999999998 -3.48918 4.75 -3.1234200000000003 4.75 -3.1234200000000003 C 4.75 -3.1234200000000003 4.76065 -1.2772800000000004 4.92966 0.41771999999999965 C 5.09866 2.1127199999999995 5.42602 3.6565799999999995 5.42602 3.6565799999999995 L -2.22232 3.5443299999999995 C -2.22232 3.5443299999999995 -3.2265099999999998 3.3844099999999995 -4.04807 3.02844 C -4.86963 2.6724699999999997 -5.42601 1.9278299999999997 -5.42601 1.9278299999999997 C -5.42601 1.9278299999999997 -3.2643299999999997 1.3486099999999999 -2.22232 -0.03462000000000032 C -1.1803099999999997 -1.4178500000000003 -1.2579599999999997 -3.6050800000000005 -1.2579599999999997 -3.6050800000000005 C -1.2579599999999997 -3.6050800000000005 0.5113700000000003 -3.7209800000000004 2.0064900000000003 -3.6050800000000005 z" stroke-linecap="round" />
</g>
</svg>