<?xml version="1.0" encoding="UTF-8" standalone="no" ?>
<!DOCTYPE svg PUBLIC "-//W3C//DTD SVG 1.1//EN" "http://www.w3.org/Graphics/SVG/1.1/DTD/svg11.dtd">
<svg xmlns="http://www.w3.org/2000/svg" xmlns:xlink="http://www.w3.org/1999/xlink" version="1.1" width="50" height="50" viewBox="0 0 50 50" xml:space="preserve">
<desc>Created with Fabric.js 5.3.0</desc>
<defs>
</defs>
<g transform="matrix(2.0887011236 0 0 2.2028791062 15.1003204517 15.2354649549)" id="xcTiOjhAHzlgyvbgu_CCU"  >
<path style="stroke: rgb(241,196,0); stroke-width: 0; stroke-dasharray: none; stroke-linecap: butt; stroke-dashoffset: 0; stroke-linejoin: miter; stroke-miterlimit: 4; fill: rgb(241,196,0); fill-rule: nonzero; opacity: 1;"  transform=" translate(0, 0)" d="M 0 -4.43262 C 2.44681 -4.43262 4.43262 -2.4468 4.43262 0 C 4.43262 2.44681 2.4468 4.43262 0 4.43262 C -2.44681 4.43262 -4.43262 2.4468 -4.43262 0 C -4.43262 -2.44681 -2.4468 -4.43262 0 -4.43262 z" stroke-linecap="round" />
</g>
<g transform="matrix(1.788787062 0 0 1.8909009438 35.9205496842 15.2354649549)" id="2cvluouSbpQU4bTtOdqez"  >
<path style="stroke: rgb(49,177,67); stroke-width: 0; stroke-dasharray: none; stroke-linecap: butt; stroke-dashoffset: 0; stroke-linejoin: miter; stroke-miterlimit: 4; fill: rgb(241,196,0); fill-rule: nonzero; opacity: 1;"  transform=" translate(0, 0)" d="M 0 -4.43262 C 2.44681 -4.43262 4.43262 -2.4468 4.43262 0 C 4.43262 2.44681 2.4468 4.43262 0 4.43262 C -2.44681 4.43262 -4.43262 2.4468 -4.43262 0 C -4.43262 -2.44681 -2.4468 -4.43262 0 -4.43262 z" stroke-linecap="round" />
</g>
<g transform="matrix(1.0127419905 0 0 1.013870606 15.2689805517 36.2349702202)" id="1f1w9SfDl9brNQnN7PJxf"  >
<path style="stroke: rgb(241,196,0); stroke-width: 0.25; stroke-dasharray: none; stroke-linecap: round; stroke-dashoffset: 0; stroke-linejoin: round; stroke-miterlimit: 10; fill: rgb(241,196,0); fill-rule: nonzero; opacity: 1;"  transform=" translate(-0.0000040632, -0.00000125)" d="M -14.94721 8.08682 C 4.798720000000001 8.12969 14.76815 8.12969 14.96108 8.08682 C 14.96108 8.08682 15.882980000000002 -8.118970000000001 -0.16652999999999984 -8.118970000000001 C -16.21604 -8.118970000000001 -14.94721 8.08682 -14.94721 8.08682 z" stroke-linecap="round" />
</g>
<g transform="matrix(0.997944742 0 0 1.0245259847 38.1767946934 33.3624647019)" id="SR8fGWyfIhRzpY-sC82hu"  >
<path style="stroke: rgb(241,196,0); stroke-width: 0.25; stroke-dasharray: none; stroke-linecap: round; stroke-dashoffset: 0; stroke-linejoin: round; stroke-miterlimit: 10; fill: rgb(241,196,0); fill-rule: nonzero; opacity: 1;"  transform=" translate(-0.0000015196, 0.0000022971)" d="M -11.74911 -4.5998 C -11.74911 -4.5998 -8.56807 -2.1868600000000002 -6.88512 1.0052199999999996 C -5.20217 4.197299999999999 -5.01731 8.16851 -5.01731 8.16851 L 11.680549999999998 8.16851 C 11.680549999999998 8.16851 12.433609999999998 1.21291 8.948249999999998 -2.86979 C 5.462889999999998 -6.95249 0.5466999999999977 -8.07447 -2.2608900000000016 -8.162279999999999 C -7.989420000000002 -8.341439999999999 -11.749110000000002 -4.599799999999999 -11.749110000000002 -4.599799999999999 z" stroke-linecap="round" />
</g>
</svg>