<?xml version="1.0" encoding="UTF-8" standalone="no" ?>
<!DOCTYPE svg PUBLIC "-//W3C//DTD SVG 1.1//EN" "http://www.w3.org/Graphics/SVG/1.1/DTD/svg11.dtd">
<svg xmlns="http://www.w3.org/2000/svg" xmlns:xlink="http://www.w3.org/1999/xlink" version="1.1" width="50" height="50" viewBox="0 0 50 50" xml:space="preserve">
<desc>Created with Fabric.js 5.3.0</desc>
<defs>
</defs>
<g transform="matrix(1 0 0 1 25.0323873364 25.2015166368)" id="Tyy5k2J1dp7oF2XIHpjiM"  >
<path style="stroke: rgb(241,196,0); stroke-width: 0.9; stroke-dasharray: none; stroke-linecap: round; stroke-dashoffset: 0; stroke-linejoin: round; stroke-miterlimit: 10; fill: rgb(241,196,0); fill-rule: nonzero; opacity: 1;"  transform=" translate(0, 0)" d="M -6.72608 9.06463 L -6.72608 24.77494 L -16.06358 24.348480000000002 C -16.06358 24.348480000000002 -17.047970000000003 24.11184 -17.613760000000003 23.53845 C -18.179550000000003 22.96507 -18.326750000000004 22.054940000000002 -18.326750000000004 22.054940000000002 L -18.326750000000004 2.5163300000000035 L -22.577120000000004 2.5163300000000035 C -22.577120000000004 2.5163300000000035 -24.060430000000004 1.9664800000000036 -24.513020000000004 0.6610100000000034 C -24.965610000000005 -0.6444599999999965 -24.057930000000006 -1.9522599999999966 -24.057930000000006 -1.9522599999999966 L -2.4887800000000055 -23.550849999999997 C -2.4887800000000055 -23.550849999999997 -1.4392400000000056 -24.774959999999997 -0.032380000000005627 -24.774959999999997 C 1.3744799999999944 -24.774959999999997 2.385359999999994 -23.550849999999997 2.385359999999994 -23.550849999999997 L 9.791859999999994 -16.215239999999998 L 9.791859999999994 -19.358579999999996 C 9.791859999999994 -19.358579999999996 9.874109999999995 -20.241379999999996 10.598499999999994 -20.921949999999995 C 11.322879999999994 -21.602519999999995 12.124419999999994 -21.704199999999997 12.124419999999994 -21.704199999999997 L 15.960489999999993 -21.704199999999997 C 15.960489999999993 -21.704199999999997 17.035089999999993 -21.508349999999997 17.612709999999993 -20.921949999999995 C 18.190329999999992 -20.335539999999995 18.270979999999994 -19.358579999999996 18.270979999999994 -19.358579999999996 L 18.270979999999994 -7.702409999999997 L 24.045879999999993 -1.9522599999999972 C 24.045879999999993 -1.9522599999999972 25.021839999999994 -0.4347299999999972 24.470999999999993 0.8707400000000027 C 23.920159999999992 2.176210000000003 22.219179999999994 2.5163300000000026 22.219179999999994 2.5163300000000026 L 18.271949999999993 2.5163300000000026 L 18.271949999999993 22.054940000000002 C 18.271949999999993 22.054940000000002 18.190579999999994 22.96506 17.612709999999993 23.53845 C 17.034839999999992 24.11183 15.960489999999993 24.348480000000002 15.960489999999993 24.348480000000002 L 6.661379999999992 24.77494 L 6.661379999999992 8.68798 C 6.661379999999992 8.68798 6.308579999999992 7.320169999999999 5.437269999999993 6.56606 C 4.5659599999999925 5.81195 3.1761499999999927 5.67152 3.1761499999999927 5.67152 L -3.3681100000000077 5.67152 C -3.3681100000000077 5.67152 -4.6624800000000075 5.71778 -5.501970000000007 6.56606 C -6.341460000000007 7.41434 -6.726080000000007 9.064630000000001 -6.726080000000007 9.064630000000001 z" stroke-linecap="round" />
</g>
</svg>