<?xml version="1.0" encoding="UTF-8" standalone="no" ?>
<!DOCTYPE svg PUBLIC "-//W3C//DTD SVG 1.1//EN" "http://www.w3.org/Graphics/SVG/1.1/DTD/svg11.dtd">
<svg xmlns="http://www.w3.org/2000/svg" xmlns:xlink="http://www.w3.org/1999/xlink" version="1.1" width="50" height="50" viewBox="0 0 50 50" xml:space="preserve">
<desc>Created with Fabric.js 5.3.0</desc>
<defs>
</defs>
<g transform="matrix(0.7060546875 0 0 0.4077905471 25 25.4287840852)" id="43JVzUUlJZeKveNSxbcZJ"  >
<path style="stroke: rgb(60,15,247); stroke-width: 0; stroke-dasharray: none; stroke-linecap: butt; stroke-dashoffset: 0; stroke-linejoin: miter; stroke-miterlimit: 4; fill: rgb(241,196,0); fill-rule: nonzero; opacity: 1;"  transform=" translate(0, 0)" d="M -35.40802 -23.66393 C -35.40802 -30.15001 -32.37119 -35.40802 -28.62507 -35.40802 L 28.625079999999997 -35.40802 L 28.625079999999997 -35.40802 C 32.371199999999995 -35.40802 35.40803 -30.15001 35.40803 -23.66393 L 35.40803 23.66393 L 35.40803 23.66393 C 35.40803 30.15001 32.371199999999995 35.40802 28.625079999999997 35.40802 L -28.62507 35.40802 L -28.62507 35.40802 C -32.37119 35.40802 -35.40802 30.15001 -35.40802 23.66393 z" stroke-linecap="round" />
</g>
<g transform="matrix(0.4650568902 0 0 0.1101916174 24.9219689988 3.9016672262)" id="dpRhsEpRW6cRoHrZ2vnlG"  >
<path style="stroke: rgb(60,15,247); stroke-width: 0; stroke-dasharray: none; stroke-linecap: butt; stroke-dashoffset: 0; stroke-linejoin: miter; stroke-miterlimit: 4; fill: rgb(241,196,0); fill-rule: nonzero; opacity: 1;"  transform=" translate(0, 0)" d="M -35.40802 4.37577 C -35.40802 -17.59621 -31.18765 -35.40802 -25.98156 -35.40802 L 26.66711 -35.40802 L 26.66711 -35.40802 C 31.494590000000002 -35.40802 35.40803 -18.89158 35.40803 1.4824800000000025 L 35.40803 26.204710000000002 L 35.40803 26.204710000000002 C 35.40803 31.287560000000003 34.43172 35.408030000000004 33.22738 35.408030000000004 L -32.83887 35.408030000000004 L -32.83887 35.408030000000004 C -34.25776 35.408030000000004 -35.40801 30.553510000000003 -35.40801 24.565150000000003 z" stroke-linecap="round" />
</g>
<g transform="matrix(0.4650568902 0 0 0.2524864785 24.9219689988 33.9533184816)" id="EOoQmitOHhA6maNPNVamn"  >
<path style="stroke: rgb(60,15,247); stroke-width: 0; stroke-dasharray: none; stroke-linecap: butt; stroke-dashoffset: 0; stroke-linejoin: miter; stroke-miterlimit: 4; fill: rgb(255,255,255); fill-rule: nonzero; opacity: 1;"  transform=" translate(0, 0)" d="M -35.40802 -6.75405 C -35.40802 -22.5792 -28.443060000000003 -35.40802 -19.85134 -35.40802 L 20.29332 -35.40802 L 20.29332 -35.40802 C 28.64094 -35.40802 35.40802 -22.94368 35.40802 -7.56813 L 35.40802 30.43362 L 35.40802 30.43362 C 35.40802 33.180910000000004 34.19888 35.40802 32.70734 35.40802 L -32.70734 35.40802 L -32.70734 35.40802 C -34.19888 35.40802 -35.40802 33.1809 -35.40802 30.43362 z" stroke-linecap="round" />
</g>
<g transform="matrix(0.0827818521 0 0 0.0827818437 9.3205133751 20.3162318371)" id="_oBElAn3OPUo4c5GNXVjJ"  >
<path style="stroke: rgb(24,33,167); stroke-width: 0; stroke-dasharray: none; stroke-linecap: butt; stroke-dashoffset: 0; stroke-linejoin: miter; stroke-miterlimit: 4; fill: rgb(255,255,255); fill-rule: nonzero; opacity: 1;"  transform=" translate(0, 0)" d="M 0 -28.40909 C 15.68182 -28.40909 28.40909 -15.681819999999998 28.40909 0 C 28.40909 15.68182 15.681819999999998 28.40909 0 28.40909 C -15.68182 28.40909 -28.40909 15.681819999999998 -28.40909 0 C -28.40909 -15.68182 -15.681819999999998 -28.40909 0 -28.40909 z" stroke-linecap="round" />
</g>
<g transform="matrix(0.3314215325 0 0 0.2216744676 24.9673996899 37.5341055461)" id="hHZZTjrBS_sFCllIgOS5n"  >
<path style="stroke: rgb(60,15,247); stroke-width: 0; stroke-dasharray: none; stroke-linecap: butt; stroke-dashoffset: 0; stroke-linejoin: miter; stroke-miterlimit: 4; fill: rgb(241,196,0); fill-rule: nonzero; opacity: 1;"  transform=" translate(0, 0)" d="M -35.40802 -25.08115 C -35.40802 -30.78452 -32.31555 -35.40802 -28.500790000000002 -35.40802 L 28.371379999999995 -35.40802 L 28.371379999999995 -35.40802 C 32.25760999999999 -35.40802 35.40801999999999 -30.6979 35.40801999999999 -24.88766 L 35.40801999999999 24.69418 L 35.40801999999999 24.69418 C 35.40801999999999 30.611269999999998 32.19966999999999 35.40803 28.24195999999999 35.40803 L -28.630210000000005 35.40803 L -28.630210000000005 35.40803 C -32.373490000000004 35.40803 -35.40802000000001 30.871159999999996 -35.40802000000001 25.274639999999998 z" stroke-linecap="round" />
</g>
</svg>