<?xml version="1.0" encoding="UTF-8" standalone="no" ?>
<!DOCTYPE svg PUBLIC "-//W3C//DTD SVG 1.1//EN" "http://www.w3.org/Graphics/SVG/1.1/DTD/svg11.dtd">
<svg xmlns="http://www.w3.org/2000/svg" xmlns:xlink="http://www.w3.org/1999/xlink" version="1.1" width="50" height="50" viewBox="0 0 50 50" xml:space="preserve">
<desc>Created with Fabric.js 5.3.0</desc>
<defs>
</defs>
<g transform="matrix(0.70605473 0 0 0.70605473 25 25)" id="oNFMYenfj1L5gHonFZG6_"  >
<path style="stroke: rgb(192,2,140); stroke-width: 0; stroke-dasharray: none; stroke-linecap: butt; stroke-dashoffset: 0; stroke-linejoin: miter; stroke-miterlimit: 4; fill: rgb(241,196,0); fill-rule: nonzero; opacity: 1;"  transform=" translate(0, 0)" d="M -35.40802 -27.74587 C -35.40802 -31.97756 -31.97756 -35.40802 -27.74587 -35.40802 L 14.604580000000002 -35.40802 L 14.604580000000002 -35.40802 C 26.094 -35.40802 35.40802 -26.094 35.40802 -14.604580000000002 L 35.40802 27.82749 L 35.40802 27.82749 C 35.40802 32.0141 32.0141 35.40802 27.82749 35.40802 L -27.74587 35.40802 L -27.74587 35.40802 C -31.97756 35.40802 -35.40802 31.97756 -35.40802 27.74587 z" stroke-linecap="round" />
</g>
<g transform="matrix(0.5410156575 0 0 0.3256836133 25 36.5318125886)" id="mqdmcKKlTybgPRvUTXEu9"  >
<path style="stroke: rgb(117,237,77); stroke-width: 0; stroke-dasharray: none; stroke-linecap: butt; stroke-dashoffset: 0; stroke-linejoin: miter; stroke-miterlimit: 4; fill: rgb(255,255,255); fill-rule: nonzero; opacity: 1;"  transform=" translate(0, 0)" d="M -35.40802 -29.41421 C -35.40802 -32.7245 -33.79258 -35.40802 -31.79983 -35.40802 L 31.69332 -35.40802 L 31.69332 -35.40802 C 33.7449 -35.40802 35.40803 -32.64528 35.40803 -29.23726 L 35.40803 29.325740000000003 L 35.40803 29.325740000000003 C 35.40803 32.68489 33.768739999999994 35.40802 31.746579999999998 35.40802 L -31.853090000000005 35.40802 L -31.853090000000005 35.40802 C -33.81642000000001 35.40802 -35.40802000000001 32.76411 -35.40802000000001 29.50269 z" stroke-linecap="round" />
</g>
<g transform="matrix(0.4043832668 0 0 0.2422546363 24.0287537337 10.5785353473)" id="zoHc9TKNUa5vhzVicjHA_"  >
<path style="stroke: rgb(117,237,77); stroke-width: 0; stroke-dasharray: none; stroke-linecap: butt; stroke-dashoffset: 0; stroke-linejoin: miter; stroke-miterlimit: 4; fill: rgb(255,255,255); fill-rule: nonzero; opacity: 1;"  transform=" translate(0, 0)" d="M -35.40802 -28.16161 C -35.40802 -32.16369 -33.46443 -35.40802 -31.0669 -35.40802 L 30.936989999999998 -35.40802 L 30.936989999999998 -35.40802 C 33.40627 -35.40802 35.40802 -32.0666 35.40802 -27.944760000000002 L 35.40802 28.658429999999996 L 35.40802 28.658429999999996 C 35.40802 32.38612 33.59769 35.40801999999999 31.364530000000002 35.40801999999999 L -31.06691 35.40801999999999 L -31.06691 35.40801999999999 C -33.46444 35.40801999999999 -35.40803 32.163689999999995 -35.40803 28.161609999999992 z" stroke-linecap="round" />
</g>
<g transform="matrix(0.0826693068 0 0 0.1915296034 31.73692094 10.5785353473)" id="wx5A37-BSzQ4ifmiG8Hur"  >
<path style="stroke: rgb(117,237,77); stroke-width: 0; stroke-dasharray: none; stroke-linecap: butt; stroke-dashoffset: 0; stroke-linejoin: miter; stroke-miterlimit: 4; fill: rgb(241,196,0); fill-rule: nonzero; opacity: 1;"  transform=" translate(0, 0)" d="M -35.40802 -31.777 C -35.40802 -33.782360000000004 -31.64166 -35.40802 -26.995620000000002 -35.40802 L 27.178979999999996 -35.40802 L 27.178979999999996 -35.40802 C 31.723759999999995 -35.40802 35.40803 -33.81779 35.40803 -31.85614 L 35.40803 32.15732 L 35.40803 32.15732 C 35.40803 33.952639999999995 32.036159999999995 35.40803 27.876739999999998 35.40803 L -28.47464 35.40803 L -28.47464 35.40803 C -32.30383 35.40803 -35.408010000000004 34.06818 -35.408010000000004 32.4154 z" stroke-linecap="round" />
</g>
</svg>