<?xml version="1.0" encoding="UTF-8" standalone="no" ?>
<!DOCTYPE svg PUBLIC "-//W3C//DTD SVG 1.1//EN" "http://www.w3.org/Graphics/SVG/1.1/DTD/svg11.dtd">
<svg xmlns="http://www.w3.org/2000/svg" xmlns:xlink="http://www.w3.org/1999/xlink" version="1.1" width="50" height="50" viewBox="0 0 50 50" xml:space="preserve">
<desc>Created with Fabric.js 5.3.0</desc>
<defs>
</defs>
<g transform="matrix(1 0 0 1 25.0182615047 44.5696512443)" id="kiFdJ4sQA1ZNf_IMMIQRi"  >
<path style="stroke: rgb(241,196,0); stroke-width: 2.5; stroke-dasharray: none; stroke-linecap: round; stroke-dashoffset: 0; stroke-linejoin: round; stroke-miterlimit: 10; fill: rgb(241,196,0); fill-rule: nonzero; opacity: 1;"  transform=" translate(0, 0)" d="M -5.03487 3.80283 L -6.01502 -3.80283 L 6.01501 -3.80283 L 4.90034 3.80283 z" stroke-linecap="round" />
</g>
<g transform="matrix(1 0 0 -1 25.0182629664 5.4445701748)" id="2qRkRLLE46XziB5xPQHhI"  >
<path style="stroke: rgb(241,196,0); stroke-width: 2.5; stroke-dasharray: none; stroke-linecap: round; stroke-dashoffset: 0; stroke-linejoin: round; stroke-miterlimit: 10; fill: rgb(241,196,0); fill-rule: nonzero; opacity: 1;"  transform=" translate(0.000005, 0)" d="M -5.03487 3.80283 L -6.01502 -3.80283 L 6.01501 -3.80283 L 4.90034 3.80283 z" stroke-linecap="round" />
</g>
<g transform="matrix(0.4848096202 -0.8746197071 0.8746197071 0.4848096202 42.0585461419 34.8188806175)" id="13u1yH5w6V-y4IyMgtfay"  >
<path style="stroke: rgb(241,196,0); stroke-width: 2.5; stroke-dasharray: none; stroke-linecap: round; stroke-dashoffset: 0; stroke-linejoin: round; stroke-miterlimit: 10; fill: rgb(241,196,0); fill-rule: nonzero; opacity: 1;"  transform=" translate(0.000005, 0)" d="M -5.03487 3.80283 L -6.01502 -3.80283 L 6.01501 -3.80283 L 4.90034 3.80283 z" stroke-linecap="round" />
</g>
<g transform="matrix(-0.5 -0.8660254038 0.8660254038 -0.5 41.974161352 15.1953297085)" id="bmxYuHVBafqyzbMVxgHv9"  >
<path style="stroke: rgb(241,196,0); stroke-width: 2.5; stroke-dasharray: none; stroke-linecap: round; stroke-dashoffset: 0; stroke-linejoin: round; stroke-miterlimit: 10; fill: rgb(241,196,0); fill-rule: nonzero; opacity: 1;"  transform=" translate(0.000005, 0)" d="M -5.03487 3.80283 L -6.01502 -3.80283 L 6.01501 -3.80283 L 4.90034 3.80283 z" stroke-linecap="round" />
</g>
<g transform="matrix(-0.4848096202 -0.8746197071 -0.8746197071 0.4848096202 8.0386896713 34.8188806175)" id="6Kug6LbYwCqDGyUdvRLft"  >
<path style="stroke: rgb(241,196,0); stroke-width: 2.5; stroke-dasharray: none; stroke-linecap: round; stroke-dashoffset: 0; stroke-linejoin: round; stroke-miterlimit: 10; fill: rgb(241,196,0); fill-rule: nonzero; opacity: 1;"  transform=" translate(0.000005, 0)" d="M -5.03487 3.80283 L -6.01502 -3.80283 L 6.01501 -3.80283 L 4.90034 3.80283 z" stroke-linecap="round" />
</g>
<g transform="matrix(0.5 -0.8660254038 -0.8660254038 -0.5 8.0386896713 15.1953297085)" id="9Jxork_jCtDfZRmz9A6uR"  >
<path style="stroke: rgb(241,196,0); stroke-width: 2.5; stroke-dasharray: none; stroke-linecap: round; stroke-dashoffset: 0; stroke-linejoin: round; stroke-miterlimit: 10; fill: rgb(241,196,0); fill-rule: nonzero; opacity: 1;"  transform=" translate(0.000005, 0)" d="M -5.03487 3.80283 L -6.01502 -3.80283 L 6.01501 -3.80283 L 4.90034 3.80283 z" stroke-linecap="round" />
</g>
<g transform="matrix(4.5975770187 0 0 4.5975770187 25.0182629664 25)" id="P1OpKMwjQq9cLQMXXzbTY"  >
<path style="stroke: rgb(34,186,203); stroke-width: 0; stroke-dasharray: none; stroke-linecap: butt; stroke-dashoffset: 0; stroke-linejoin: miter; stroke-miterlimit: 4; fill: rgb(241,196,0); fill-rule: nonzero; opacity: 1;"  transform=" translate(0, 0)" d="M 0 -4.02576 C 2.22222 -4.02576 4.02576 -2.22222 4.02576 0 C 4.02576 2.22222 2.22222 4.02576 0 4.02576 C -2.22222 4.02576 -4.02576 2.22222 -4.02576 0 C -4.02576 -2.22222 -2.22222 -4.02576 0 -4.02576 z" stroke-linecap="round" />
</g>
<g transform="matrix(2.1434295366 0 0 2.1434295366 25.0182629664 25)" id="60kbVSAgdwuO0OmAJcZkr"  >
<path style="stroke: rgb(34,186,203); stroke-width: 0; stroke-dasharray: none; stroke-linecap: butt; stroke-dashoffset: 0; stroke-linejoin: miter; stroke-miterlimit: 4; fill: rgb(255,255,255); fill-rule: nonzero; opacity: 1;"  transform=" translate(0, 0)" d="M 0 -4.02576 C 2.22222 -4.02576 4.02576 -2.22222 4.02576 0 C 4.02576 2.22222 2.22222 4.02576 0 4.02576 C -2.22222 4.02576 -4.02576 2.22222 -4.02576 0 C -4.02576 -2.22222 -2.22222 -4.02576 0 -4.02576 z" stroke-linecap="round" />
</g>
</svg>