<?xml version="1.0" encoding="UTF-8" standalone="no" ?>
<!DOCTYPE svg PUBLIC "-//W3C//DTD SVG 1.1//EN" "http://www.w3.org/Graphics/SVG/1.1/DTD/svg11.dtd">
<svg xmlns="http://www.w3.org/2000/svg" xmlns:xlink="http://www.w3.org/1999/xlink" version="1.1" width="50" height="50" viewBox="0 0 50 50" xml:space="preserve">
<desc>Created with Fabric.js 5.3.0</desc>
<defs>
</defs>
<g transform="matrix(0.1278284613 0.0934827021 -0.0617013718 0.0794638676 15.1817264474 31.0444177207)" id="ARPur8sjDi_lEddxVgh2X"  >
<path style="stroke: rgb(0,0,0); stroke-width: 0; stroke-dasharray: none; stroke-linecap: butt; stroke-dashoffset: 0; stroke-linejoin: miter; stroke-miterlimit: 4; fill: rgb(241,196,0); fill-rule: nonzero; opacity: 1;"  transform=" translate(0, 0)" d="M 0 -25.57239 C 5.23754 -25.57239 10.09602 -23.68226 14.09383 -20.58128 C 20.50339 -15.60957 24.7006 -7.525409999999999 24.7006 0.8717900000000007 C 24.7006 14.50652 13.634730000000001 25.572390000000002 0 25.572390000000002 C -13.63473 25.572390000000002 -24.7006 14.506520000000002 -24.7006 0.8717900000000007 C -24.7006 -12.762939999999999 -13.634730000000001 -25.57238 0 -25.57238 z" stroke-linecap="round" />
</g>
<g transform="matrix(0.3178683226 0 0 0.2268561578 9.978395145 7.1736201424)" id="btoTuOwCL5Q9onRPDk2Go"  >
<path style="stroke: rgb(0,0,0); stroke-width: 0; stroke-dasharray: none; stroke-linecap: butt; stroke-dashoffset: 0; stroke-linejoin: miter; stroke-miterlimit: 4; fill: rgb(241,196,0); fill-rule: nonzero; opacity: 1;"  transform=" translate(0, 0.000005)" d="M 0 -25.57239 C 13.63473 -25.57239 24.7006 -12.762949999999998 24.7006 0.8717800000000011 C 24.7006 14.50651 13.634730000000001 25.572380000000003 0 25.572380000000003 C -13.63473 25.572380000000003 -24.7006 14.506510000000002 -24.7006 0.8717800000000011 C -24.7006 -12.762949999999998 -13.634730000000001 -25.57239 0 -25.57239 z" stroke-linecap="round" />
</g>
<g transform="matrix(1.1796526941 -0.5382642893 0.7706267277 1.6171130275 13.1608691449 16.5228567169)" id="1Nf_NplwQIZWmd_L6dfMe"  >
<path style="stroke: rgb(0,0,0); stroke-width: 0; stroke-dasharray: none; stroke-linecap: butt; stroke-dashoffset: 0; stroke-linejoin: miter; stroke-miterlimit: 4; fill: rgb(241,196,0); fill-rule: nonzero; opacity: 1;"  transform=" translate(0.000005, 0.000005)" d="M -6.13773 -6.13773 L 6.137719999999999 -6.13773 L 6.137719999999999 6.137719999999999 L -6.13773 6.137719999999999 z" stroke-linecap="round" />
</g>
<g transform="matrix(0.0822684532 -0.1514006793 0.1124901435 0.0585271924 17.8299342617 25.421046429)" id="zn1LvXbxtKX-OKcN-YkY8"  >
<path style="stroke: rgb(0,0,0); stroke-width: 0; stroke-dasharray: none; stroke-linecap: butt; stroke-dashoffset: 0; stroke-linejoin: miter; stroke-miterlimit: 4; fill: rgb(241,196,0); fill-rule: nonzero; opacity: 1;"  transform=" translate(-40, -40)" d="M 0 0 L 80 80 L 0 80 L 0 0 z" stroke-linecap="round" />
</g>
<g transform="matrix(1.467476451 0 0 -1.4359522447 29.0170253619 22.3147825366)" id="IZNAhNXZC57kXmXNYx6HF"  >
<path style="stroke: rgb(241,196,0); stroke-width: 2; stroke-dasharray: none; stroke-linecap: round; stroke-dashoffset: 0; stroke-linejoin: round; stroke-miterlimit: 10; fill: none; fill-rule: nonzero; opacity: 1;"  transform=" translate(0, 0)" d="M 3.05869 -14.49626 C 3.05869 -14.49626 9.7241 -0.4299999999999997 11.71437 4.219529999999999 C 13.06254 7.369019999999999 14.243450000000001 11.064079999999999 10.135380000000001 13.62633 C 6.027310000000002 16.188579999999998 2.5611500000000014 12.47247 1.7363800000000023 10.43459 C 0.09325000000000228 6.37467 -2.9294899999999977 -1.7219800000000003 -5.990569999999998 -6.53613 C -9.051649999999999 -11.350290000000001 -12.973719999999998 -4.77006 -12.973719999999998 -4.77006" stroke-linecap="round" />
</g>
<g transform="matrix(-1.467476451 0 0 -1.4359522447 17.6494276191 25.0117665754)" id="93ua32aQJk3b20rTnKMnr"  >
<path style="stroke: rgb(241,196,0); stroke-width: 2; stroke-dasharray: none; stroke-linecap: round; stroke-dashoffset: 0; stroke-linejoin: round; stroke-miterlimit: 10; fill: none; fill-rule: nonzero; opacity: 1;"  transform=" translate(1.385e-7, 0.0000055798)" d="M -10.7021 -12.75873 C -10.7021 -12.75873 -8.69155 -16.40558 -5.09836 -16.37425 C -1.5051599999999996 -16.34291 0.25503000000000053 -12.75873 0.25503000000000053 -12.75873 C 0.25503000000000053 -12.75873 6.73587 -0.22591000000000072 9.44275 6.097719999999999 C 10.79092 9.247209999999999 11.97183 12.942269999999999 7.86376 15.50452 C 3.7556900000000004 18.066769999999998 0.28953000000000007 14.35066 -0.535239999999999 12.31278 C -2.1783699999999993 8.25286 -4.928709999999999 1.6838800000000003 -4.928709999999999 1.6838800000000003" stroke-linecap="round" />
</g>
</svg>